<svg width="259" height="31" viewBox="0 0 259 31" fill="none" xmlns="http://www.w3.org/2000/svg">
<rect width="259" height="31" rx="15.5" fill="black"/>
<path d="M20.606 11.46C21.794 11.46 22.736 11.808 23.432 12.504C24.14 13.188 24.494 14.19 24.494 15.51V21H23.216V15.636C23.216 14.652 22.97 13.902 22.478 13.386C21.986 12.87 21.284 12.612 20.372 12.612C19.352 12.612 18.542 12.918 17.942 13.53C17.354 14.13 17.06 14.964 17.06 16.032V21H15.782V11.532H17.006V13.278C17.354 12.702 17.834 12.258 18.446 11.946C19.07 11.622 19.79 11.46 20.606 11.46ZM28.0896 21.09C27.8256 21.09 27.5976 20.994 27.4056 20.802C27.2256 20.61 27.1356 20.376 27.1356 20.1C27.1356 19.824 27.2256 19.596 27.4056 19.416C27.5976 19.224 27.8256 19.128 28.0896 19.128C28.3536 19.128 28.5816 19.224 28.7736 19.416C28.9656 19.596 29.0616 19.824 29.0616 20.1C29.0616 20.376 28.9656 20.61 28.7736 20.802C28.5816 20.994 28.3536 21.09 28.0896 21.09ZM45.0589 11.532L41.4769 21H40.2709L37.2829 13.242L34.2949 21H33.0889L29.5249 11.532H30.7489L33.7189 19.578L36.7609 11.532H37.8589L40.8829 19.578L43.8889 11.532H45.0589ZM50.0139 11.46C51.2499 11.46 52.1979 11.772 52.8579 12.396C53.5179 13.008 53.8479 13.92 53.8479 15.132V21H52.6239V19.524C52.3359 20.016 51.9099 20.4 51.3459 20.676C50.7939 20.952 50.1339 21.09 49.3659 21.09C48.3099 21.09 47.4699 20.838 46.8459 20.334C46.2219 19.83 45.9099 19.164 45.9099 18.336C45.9099 17.532 46.1979 16.884 46.7739 16.392C47.3619 15.9 48.2919 15.654 49.5639 15.654H52.5699V15.078C52.5699 14.262 52.3419 13.644 51.8859 13.224C51.4299 12.792 50.7639 12.576 49.8879 12.576C49.2879 12.576 48.7119 12.678 48.1599 12.882C47.6079 13.074 47.1339 13.344 46.7379 13.692L46.1619 12.738C46.6419 12.33 47.2179 12.018 47.8899 11.802C48.5619 11.574 49.2699 11.46 50.0139 11.46ZM49.5639 20.082C50.2839 20.082 50.9019 19.92 51.4179 19.596C51.9339 19.26 52.3179 18.78 52.5699 18.156V16.608H49.5999C47.9799 16.608 47.1699 17.172 47.1699 18.3C47.1699 18.852 47.3799 19.29 47.7999 19.614C48.2199 19.926 48.8079 20.082 49.5639 20.082ZM65.0993 11.532L60.8873 21H59.5733L55.3793 11.532H56.7113L60.2573 19.596L63.8393 11.532H65.0993ZM74.8795 16.662H66.9595C67.0315 17.646 67.4095 18.444 68.0935 19.056C68.7775 19.656 69.6415 19.956 70.6855 19.956C71.2735 19.956 71.8135 19.854 72.3055 19.65C72.7975 19.434 73.2235 19.122 73.5835 18.714L74.3035 19.542C73.8835 20.046 73.3555 20.43 72.7195 20.694C72.0955 20.958 71.4055 21.09 70.6495 21.09C69.6775 21.09 68.8135 20.886 68.0575 20.478C67.3135 20.058 66.7315 19.482 66.3115 18.75C65.8915 18.018 65.6815 17.19 65.6815 16.266C65.6815 15.342 65.8795 14.514 66.2755 13.782C66.6835 13.05 67.2355 12.48 67.9315 12.072C68.6395 11.664 69.4315 11.46 70.3075 11.46C71.1835 11.46 71.9695 11.664 72.6655 12.072C73.3615 12.48 73.9075 13.05 74.3035 13.782C74.6995 14.502 74.8975 15.33 74.8975 16.266L74.8795 16.662ZM70.3075 12.558C69.3955 12.558 68.6275 12.852 68.0035 13.44C67.3915 14.016 67.0435 14.772 66.9595 15.708H73.6735C73.5895 14.772 73.2355 14.016 72.6115 13.44C71.9995 12.852 71.2315 12.558 70.3075 12.558ZM80.0368 21.09C79.2688 21.09 78.5308 20.982 77.8228 20.766C77.1268 20.538 76.5808 20.256 76.1848 19.92L76.7608 18.912C77.1568 19.224 77.6548 19.482 78.2548 19.686C78.8548 19.878 79.4788 19.974 80.1268 19.974C80.9908 19.974 81.6268 19.842 82.0348 19.578C82.4548 19.302 82.6648 18.918 82.6648 18.426C82.6648 18.078 82.5508 17.808 82.3228 17.616C82.0948 17.412 81.8068 17.262 81.4588 17.166C81.1108 17.058 80.6488 16.956 80.0728 16.86C79.3048 16.716 78.6868 16.572 78.2188 16.428C77.7508 16.272 77.3488 16.014 77.0128 15.654C76.6888 15.294 76.5268 14.796 76.5268 14.16C76.5268 13.368 76.8568 12.72 77.5168 12.216C78.1768 11.712 79.0948 11.46 80.2708 11.46C80.8828 11.46 81.4948 11.544 82.1068 11.712C82.7188 11.868 83.2228 12.078 83.6188 12.342L83.0608 13.368C82.2808 12.828 81.3508 12.558 80.2708 12.558C79.4548 12.558 78.8368 12.702 78.4168 12.99C78.0088 13.278 77.8048 13.656 77.8048 14.124C77.8048 14.484 77.9188 14.772 78.1468 14.988C78.3868 15.204 78.6808 15.366 79.0288 15.474C79.3768 15.57 79.8568 15.672 80.4688 15.78C81.2248 15.924 81.8308 16.068 82.2868 16.212C82.7428 16.356 83.1328 16.602 83.4568 16.95C83.7808 17.298 83.9428 17.778 83.9428 18.39C83.9428 19.218 83.5948 19.878 82.8988 20.37C82.2148 20.85 81.2608 21.09 80.0368 21.09ZM96.1694 17.688H93.6494V21H92.3534V17.688H85.2434V16.752L91.9214 8.4H93.3614L86.9174 16.536H92.3894V13.62H93.6494V16.536H96.1694V17.688ZM105.894 19.848V21H97.0555V20.082L102.294 14.952C102.954 14.304 103.398 13.746 103.626 13.278C103.866 12.798 103.986 12.318 103.986 11.838C103.986 11.094 103.728 10.518 103.212 10.11C102.708 9.69 101.982 9.48 101.034 9.48C99.5575 9.48 98.4115 9.948 97.5955 10.884L96.6775 10.092C97.1695 9.516 97.7935 9.072 98.5495 8.76C99.3175 8.448 100.182 8.292 101.142 8.292C102.426 8.292 103.44 8.598 104.184 9.21C104.94 9.81 105.318 10.638 105.318 11.694C105.318 12.342 105.174 12.966 104.886 13.566C104.598 14.166 104.052 14.856 103.248 15.636L98.9635 19.848H105.894ZM111.444 8.292C113.112 8.292 114.39 8.844 115.278 9.948C116.166 11.04 116.61 12.588 116.61 14.592C116.61 15.996 116.37 17.184 115.89 18.156C115.41 19.128 114.738 19.866 113.874 20.37C113.01 20.862 112.002 21.108 110.85 21.108C109.602 21.108 108.606 20.88 107.862 20.424L108.384 19.38C108.984 19.776 109.8 19.974 110.832 19.974C112.224 19.974 113.316 19.536 114.108 18.66C114.9 17.772 115.296 16.488 115.296 14.808C115.296 14.496 115.278 14.154 115.242 13.782C114.93 14.466 114.432 15 113.748 15.384C113.064 15.756 112.278 15.942 111.39 15.942C110.562 15.942 109.824 15.786 109.176 15.474C108.54 15.162 108.042 14.724 107.682 14.16C107.322 13.584 107.142 12.918 107.142 12.162C107.142 11.394 107.328 10.716 107.7 10.128C108.072 9.54 108.582 9.09 109.23 8.778C109.89 8.454 110.628 8.292 111.444 8.292ZM111.588 14.844C112.224 14.844 112.782 14.724 113.262 14.484C113.754 14.244 114.138 13.914 114.414 13.494C114.69 13.074 114.828 12.606 114.828 12.09C114.828 11.61 114.696 11.166 114.432 10.758C114.18 10.35 113.802 10.02 113.298 9.768C112.794 9.516 112.194 9.39 111.498 9.39C110.586 9.39 109.842 9.642 109.266 10.146C108.702 10.638 108.42 11.298 108.42 12.126C108.42 12.954 108.702 13.614 109.266 14.106C109.842 14.598 110.616 14.844 111.588 14.844ZM126.895 8.292C128.503 8.292 129.937 8.628 131.197 9.3C132.469 9.96 133.459 10.896 134.167 12.108C134.875 13.308 135.229 14.682 135.229 16.23C135.229 17.754 134.965 18.948 134.437 19.812C133.909 20.664 133.177 21.09 132.241 21.09C131.653 21.09 131.173 20.916 130.801 20.568C130.441 20.22 130.243 19.74 130.207 19.128C129.847 19.752 129.355 20.238 128.731 20.586C128.107 20.922 127.399 21.09 126.607 21.09C125.767 21.09 125.005 20.892 124.321 20.496C123.649 20.088 123.115 19.53 122.719 18.822C122.335 18.114 122.143 17.316 122.143 16.428C122.143 15.54 122.335 14.748 122.719 14.052C123.115 13.344 123.649 12.792 124.321 12.396C125.005 12 125.767 11.802 126.607 11.802C127.375 11.802 128.065 11.97 128.677 12.306C129.301 12.63 129.799 13.092 130.171 13.692V11.874H131.341V18.696C131.341 19.176 131.443 19.524 131.647 19.74C131.851 19.956 132.121 20.064 132.457 20.064C133.021 20.064 133.465 19.728 133.789 19.056C134.125 18.384 134.293 17.448 134.293 16.248C134.293 14.856 133.981 13.632 133.357 12.576C132.733 11.508 131.857 10.68 130.729 10.092C129.613 9.504 128.335 9.21 126.895 9.21C125.443 9.21 124.153 9.516 123.025 10.128C121.909 10.728 121.039 11.58 120.415 12.684C119.791 13.776 119.479 15.024 119.479 16.428C119.479 17.832 119.785 19.086 120.397 20.19C121.021 21.294 121.885 22.152 122.989 22.764C124.105 23.376 125.383 23.682 126.823 23.682C127.387 23.682 127.975 23.616 128.587 23.484C129.211 23.352 129.775 23.154 130.279 22.89L130.585 23.772C130.069 24.036 129.469 24.24 128.785 24.384C128.113 24.528 127.459 24.6 126.823 24.6C125.191 24.6 123.745 24.252 122.485 23.556C121.225 22.86 120.241 21.894 119.533 20.658C118.837 19.41 118.489 18 118.489 16.428C118.489 14.844 118.843 13.44 119.551 12.216C120.259 10.98 121.249 10.02 122.521 9.336C123.805 8.64 125.263 8.292 126.895 8.292ZM126.769 20.046C127.417 20.046 127.999 19.896 128.515 19.596C129.031 19.296 129.439 18.876 129.739 18.336C130.039 17.784 130.189 17.148 130.189 16.428C130.189 15.72 130.039 15.096 129.739 14.556C129.439 14.004 129.031 13.584 128.515 13.296C127.999 12.996 127.417 12.846 126.769 12.846C126.109 12.846 125.515 12.996 124.987 13.296C124.471 13.596 124.063 14.016 123.763 14.556C123.475 15.096 123.331 15.72 123.331 16.428C123.331 17.136 123.475 17.766 123.763 18.318C124.063 18.858 124.471 19.284 124.987 19.596C125.515 19.896 126.109 20.046 126.769 20.046ZM146.698 11.532V19.848C146.698 21.456 146.302 22.644 145.51 23.412C144.73 24.192 143.548 24.582 141.964 24.582C141.088 24.582 140.254 24.45 139.462 24.186C138.682 23.934 138.046 23.58 137.554 23.124L138.202 22.152C138.658 22.56 139.21 22.878 139.858 23.106C140.518 23.334 141.208 23.448 141.928 23.448C143.128 23.448 144.01 23.166 144.574 22.602C145.138 22.05 145.42 21.186 145.42 20.01V18.804C145.024 19.404 144.502 19.86 143.854 20.172C143.218 20.484 142.51 20.64 141.73 20.64C140.842 20.64 140.032 20.448 139.3 20.064C138.58 19.668 138.01 19.122 137.59 18.426C137.182 17.718 136.978 16.92 136.978 16.032C136.978 15.144 137.182 14.352 137.59 13.656C138.01 12.96 138.58 12.42 139.3 12.036C140.02 11.652 140.83 11.46 141.73 11.46C142.534 11.46 143.26 11.622 143.908 11.946C144.556 12.27 145.078 12.738 145.474 13.35V11.532H146.698ZM141.856 19.506C142.54 19.506 143.158 19.362 143.71 19.074C144.262 18.774 144.688 18.36 144.988 17.832C145.3 17.304 145.456 16.704 145.456 16.032C145.456 15.36 145.3 14.766 144.988 14.25C144.688 13.722 144.262 13.314 143.71 13.026C143.17 12.726 142.552 12.576 141.856 12.576C141.172 12.576 140.554 12.72 140.002 13.008C139.462 13.296 139.036 13.704 138.724 14.232C138.424 14.76 138.274 15.36 138.274 16.032C138.274 16.704 138.424 17.304 138.724 17.832C139.036 18.36 139.462 18.774 140.002 19.074C140.554 19.362 141.172 19.506 141.856 19.506ZM162.08 11.46C163.268 11.46 164.198 11.802 164.87 12.486C165.554 13.17 165.896 14.178 165.896 15.51V21H164.618V15.636C164.618 14.652 164.378 13.902 163.898 13.386C163.43 12.87 162.764 12.612 161.9 12.612C160.916 12.612 160.142 12.918 159.578 13.53C159.014 14.13 158.732 14.964 158.732 16.032V21H157.454V15.636C157.454 14.652 157.214 13.902 156.734 13.386C156.266 12.87 155.594 12.612 154.718 12.612C153.746 12.612 152.972 12.918 152.396 13.53C151.832 14.13 151.55 14.964 151.55 16.032V21H150.272V11.532H151.496V13.26C151.832 12.684 152.3 12.24 152.9 11.928C153.5 11.616 154.19 11.46 154.97 11.46C155.762 11.46 156.446 11.628 157.022 11.964C157.61 12.3 158.048 12.798 158.336 13.458C158.684 12.834 159.182 12.348 159.83 12C160.49 11.64 161.24 11.46 162.08 11.46ZM172.674 11.46C173.91 11.46 174.858 11.772 175.518 12.396C176.178 13.008 176.508 13.92 176.508 15.132V21H175.284V19.524C174.996 20.016 174.57 20.4 174.006 20.676C173.454 20.952 172.794 21.09 172.026 21.09C170.97 21.09 170.13 20.838 169.506 20.334C168.882 19.83 168.57 19.164 168.57 18.336C168.57 17.532 168.858 16.884 169.434 16.392C170.022 15.9 170.952 15.654 172.224 15.654H175.23V15.078C175.23 14.262 175.002 13.644 174.546 13.224C174.09 12.792 173.424 12.576 172.548 12.576C171.948 12.576 171.372 12.678 170.82 12.882C170.268 13.074 169.794 13.344 169.398 13.692L168.822 12.738C169.302 12.33 169.878 12.018 170.55 11.802C171.222 11.574 171.93 11.46 172.674 11.46ZM172.224 20.082C172.944 20.082 173.562 19.92 174.078 19.596C174.594 19.26 174.978 18.78 175.23 18.156V16.608H172.26C170.64 16.608 169.83 17.172 169.83 18.3C169.83 18.852 170.04 19.29 170.46 19.614C170.88 19.926 171.468 20.082 172.224 20.082ZM179.979 11.532H181.257V21H179.979V11.532ZM180.627 9.462C180.363 9.462 180.141 9.372 179.961 9.192C179.781 9.012 179.691 8.796 179.691 8.544C179.691 8.304 179.781 8.094 179.961 7.914C180.141 7.734 180.363 7.644 180.627 7.644C180.891 7.644 181.113 7.734 181.293 7.914C181.473 8.082 181.563 8.286 181.563 8.526C181.563 8.79 181.473 9.012 181.293 9.192C181.113 9.372 180.891 9.462 180.627 9.462ZM184.813 7.644H186.091V21H184.813V7.644ZM189.773 21.09C189.509 21.09 189.281 20.994 189.089 20.802C188.909 20.61 188.819 20.376 188.819 20.1C188.819 19.824 188.909 19.596 189.089 19.416C189.281 19.224 189.509 19.128 189.773 19.128C190.037 19.128 190.265 19.224 190.457 19.416C190.649 19.596 190.745 19.824 190.745 20.1C190.745 20.376 190.649 20.61 190.457 20.802C190.265 20.994 190.037 21.09 189.773 21.09ZM197.122 21.09C196.186 21.09 195.346 20.886 194.602 20.478C193.87 20.07 193.294 19.5 192.874 18.768C192.454 18.024 192.244 17.19 192.244 16.266C192.244 15.342 192.454 14.514 192.874 13.782C193.294 13.05 193.87 12.48 194.602 12.072C195.346 11.664 196.186 11.46 197.122 11.46C197.938 11.46 198.664 11.622 199.3 11.946C199.948 12.258 200.458 12.72 200.83 13.332L199.876 13.98C199.564 13.512 199.168 13.164 198.688 12.936C198.208 12.696 197.686 12.576 197.122 12.576C196.438 12.576 195.82 12.732 195.268 13.044C194.728 13.344 194.302 13.776 193.99 14.34C193.69 14.904 193.54 15.546 193.54 16.266C193.54 16.998 193.69 17.646 193.99 18.21C194.302 18.762 194.728 19.194 195.268 19.506C195.82 19.806 196.438 19.956 197.122 19.956C197.686 19.956 198.208 19.842 198.688 19.614C199.168 19.386 199.564 19.038 199.876 18.57L200.83 19.218C200.458 19.83 199.948 20.298 199.3 20.622C198.652 20.934 197.926 21.09 197.122 21.09ZM207.052 21.09C206.14 21.09 205.318 20.886 204.586 20.478C203.854 20.058 203.278 19.482 202.858 18.75C202.438 18.018 202.228 17.19 202.228 16.266C202.228 15.342 202.438 14.514 202.858 13.782C203.278 13.05 203.854 12.48 204.586 12.072C205.318 11.664 206.14 11.46 207.052 11.46C207.964 11.46 208.786 11.664 209.518 12.072C210.25 12.48 210.82 13.05 211.228 13.782C211.648 14.514 211.858 15.342 211.858 16.266C211.858 17.19 211.648 18.018 211.228 18.75C210.82 19.482 210.25 20.058 209.518 20.478C208.786 20.886 207.964 21.09 207.052 21.09ZM207.052 19.956C207.724 19.956 208.324 19.806 208.852 19.506C209.392 19.194 209.812 18.756 210.112 18.192C210.412 17.628 210.562 16.986 210.562 16.266C210.562 15.546 210.412 14.904 210.112 14.34C209.812 13.776 209.392 13.344 208.852 13.044C208.324 12.732 207.724 12.576 207.052 12.576C206.38 12.576 205.774 12.732 205.234 13.044C204.706 13.344 204.286 13.776 203.974 14.34C203.674 14.904 203.524 15.546 203.524 16.266C203.524 16.986 203.674 17.628 203.974 18.192C204.286 18.756 204.706 19.194 205.234 19.506C205.774 19.806 206.38 19.956 207.052 19.956ZM226.276 11.46C227.464 11.46 228.394 11.802 229.066 12.486C229.75 13.17 230.092 14.178 230.092 15.51V21H228.814V15.636C228.814 14.652 228.574 13.902 228.094 13.386C227.626 12.87 226.96 12.612 226.096 12.612C225.112 12.612 224.338 12.918 223.774 13.53C223.21 14.13 222.928 14.964 222.928 16.032V21H221.65V15.636C221.65 14.652 221.41 13.902 220.93 13.386C220.462 12.87 219.79 12.612 218.914 12.612C217.942 12.612 217.168 12.918 216.592 13.53C216.028 14.13 215.746 14.964 215.746 16.032V21H214.468V11.532H215.692V13.26C216.028 12.684 216.496 12.24 217.096 11.928C217.696 11.616 218.386 11.46 219.166 11.46C219.958 11.46 220.642 11.628 221.218 11.964C221.806 12.3 222.244 12.798 222.532 13.458C222.88 12.834 223.378 12.348 224.026 12C224.686 11.64 225.436 11.46 226.276 11.46Z" fill="#C4C4C4"/>
<path d="M237 13H244V20" stroke="#C4C4C4" stroke-width="1.5"/>
<path d="M244 13L237 20" stroke="#C4C4C4" stroke-width="1.5"/>
</svg>
