<svg width="90" height="31" viewBox="0 0 90 31" fill="none" xmlns="http://www.w3.org/2000/svg">
<rect width="90" height="31" rx="15.5" fill="black"/>
<path d="M22.498 15.1H23.492V18.838C23.0347 19.2393 22.4933 19.5473 21.868 19.762C21.2427 19.9767 20.5847 20.084 19.894 20.084C18.914 20.084 18.032 19.8693 17.248 19.44C16.464 19.0107 15.848 18.418 15.4 17.662C14.952 16.8967 14.728 16.0427 14.728 15.1C14.728 14.1573 14.952 13.308 15.4 12.552C15.848 11.7867 16.464 11.1893 17.248 10.76C18.032 10.3307 18.9187 10.116 19.908 10.116C20.6547 10.116 21.3407 10.2373 21.966 10.48C22.5913 10.7133 23.1187 11.0633 23.548 11.53L22.904 12.188C22.1293 11.4227 21.1447 11.04 19.95 11.04C19.1567 11.04 18.438 11.2173 17.794 11.572C17.1593 11.9173 16.66 12.4027 16.296 13.028C15.932 13.644 15.75 14.3347 15.75 15.1C15.75 15.8653 15.932 16.556 16.296 17.172C16.66 17.788 17.1593 18.2733 17.794 18.628C18.4287 18.9827 19.1427 19.16 19.936 19.16C20.944 19.16 21.798 18.908 22.498 18.404V15.1ZM26.2141 12.636H27.2081V20H26.2141V12.636ZM26.7181 11.026C26.5128 11.026 26.3401 10.956 26.2001 10.816C26.0601 10.676 25.9901 10.508 25.9901 10.312C25.9901 10.1253 26.0601 9.962 26.2001 9.822C26.3401 9.682 26.5128 9.612 26.7181 9.612C26.9235 9.612 27.0961 9.682 27.2361 9.822C27.3761 9.95267 27.4461 10.1113 27.4461 10.298C27.4461 10.5033 27.3761 10.676 27.2361 10.816C27.0961 10.956 26.9235 11.026 26.7181 11.026ZM33.8519 19.552C33.6652 19.72 33.4319 19.8507 33.1519 19.944C32.8812 20.028 32.5966 20.07 32.2979 20.07C31.6072 20.07 31.0752 19.8833 30.7019 19.51C30.3286 19.1367 30.1419 18.6093 30.1419 17.928V13.476H28.8259V12.636H30.1419V11.026H31.1359V12.636H33.3759V13.476H31.1359V17.872C31.1359 18.3107 31.2432 18.6467 31.4579 18.88C31.6819 19.104 31.9992 19.216 32.4099 19.216C32.6152 19.216 32.8112 19.1833 32.9979 19.118C33.1939 19.0527 33.3619 18.9593 33.5019 18.838L33.8519 19.552ZM39.4134 12.58C40.3374 12.58 41.0701 12.8507 41.6114 13.392C42.1621 13.924 42.4374 14.7033 42.4374 15.73V20H41.4434V15.828C41.4434 15.0627 41.2521 14.4793 40.8694 14.078C40.4867 13.6767 39.9407 13.476 39.2314 13.476C38.4381 13.476 37.8081 13.714 37.3414 14.19C36.8841 14.6567 36.6554 15.3053 36.6554 16.136V20H35.6614V9.612H36.6554V13.924C36.9261 13.4947 37.2994 13.1633 37.7754 12.93C38.2514 12.6967 38.7974 12.58 39.4134 12.58ZM51.772 12.636V20H50.82V18.656C50.5587 19.104 50.1993 19.454 49.742 19.706C49.2847 19.9487 48.762 20.07 48.174 20.07C47.2127 20.07 46.452 19.804 45.892 19.272C45.3413 18.7307 45.066 17.942 45.066 16.906V12.636H46.06V16.808C46.06 17.5827 46.2513 18.1707 46.634 18.572C47.0167 18.9733 47.5627 19.174 48.272 19.174C49.0467 19.174 49.658 18.9407 50.106 18.474C50.554 17.998 50.778 17.34 50.778 16.5V12.636H51.772ZM58.3499 12.58C59.0406 12.58 59.6659 12.7387 60.2259 13.056C60.7859 13.364 61.2246 13.8027 61.5419 14.372C61.8593 14.9413 62.0179 15.59 62.0179 16.318C62.0179 17.046 61.8593 17.6947 61.5419 18.264C61.2246 18.8333 60.7859 19.2767 60.2259 19.594C59.6659 19.9113 59.0406 20.07 58.3499 20.07C57.7339 20.07 57.1786 19.9393 56.6839 19.678C56.1986 19.4167 55.8066 19.0387 55.5079 18.544V20H54.5559V9.612H55.5499V14.036C55.8579 13.56 56.2499 13.2007 56.7259 12.958C57.2113 12.706 57.7526 12.58 58.3499 12.58ZM58.2799 19.188C58.7933 19.188 59.2599 19.0713 59.6799 18.838C60.0999 18.5953 60.4266 18.2547 60.6599 17.816C60.9026 17.3773 61.0239 16.878 61.0239 16.318C61.0239 15.758 60.9026 15.2587 60.6599 14.82C60.4266 14.3813 60.0999 14.0453 59.6799 13.812C59.2599 13.5693 58.7933 13.448 58.2799 13.448C57.7573 13.448 57.2859 13.5693 56.8659 13.812C56.4553 14.0453 56.1286 14.3813 55.8859 14.82C55.6526 15.2587 55.5359 15.758 55.5359 16.318C55.5359 16.878 55.6526 17.3773 55.8859 17.816C56.1286 18.2547 56.4553 18.5953 56.8659 18.838C57.2859 19.0713 57.7573 19.188 58.2799 19.188Z" fill="#C4C4C4"/>
<path d="M68 13H75V20" stroke="#C4C4C4" stroke-width="1.5"/>
<path d="M75 13L68 20" stroke="#C4C4C4" stroke-width="1.5"/>
</svg>
