<svg width="114" height="31" viewBox="0 0 114 31" fill="none" xmlns="http://www.w3.org/2000/svg">
<rect width="114" height="31" rx="15.5" fill="black"/>
<path d="M15.596 10.2H16.632V20H15.596V10.2ZM23.3626 12.58C24.2866 12.58 25.0193 12.8507 25.5606 13.392C26.1113 13.924 26.3866 14.7033 26.3866 15.73V20H25.3926V15.828C25.3926 15.0627 25.2013 14.4793 24.8186 14.078C24.4359 13.6767 23.8899 13.476 23.1806 13.476C22.3873 13.476 21.7573 13.714 21.2906 14.19C20.8333 14.6567 20.6046 15.3053 20.6046 16.136V20H19.6106V12.636H20.5626V13.994C20.8333 13.546 21.2066 13.2007 21.6826 12.958C22.1679 12.706 22.7279 12.58 23.3626 12.58ZM31.0592 20.07C30.4619 20.07 29.8879 19.986 29.3372 19.818C28.7959 19.6407 28.3712 19.4213 28.0632 19.16L28.5112 18.376C28.8192 18.6187 29.2066 18.8193 29.6732 18.978C30.1399 19.1273 30.6252 19.202 31.1292 19.202C31.8012 19.202 32.2959 19.0993 32.6132 18.894C32.9399 18.6793 33.1032 18.3807 33.1032 17.998C33.1032 17.7273 33.0146 17.5173 32.8372 17.368C32.6599 17.2093 32.4359 17.0927 32.1652 17.018C31.8946 16.934 31.5352 16.8547 31.0872 16.78C30.4899 16.668 30.0092 16.556 29.6452 16.444C29.2812 16.3227 28.9686 16.122 28.7072 15.842C28.4552 15.562 28.3292 15.1747 28.3292 14.68C28.3292 14.064 28.5859 13.56 29.0992 13.168C29.6126 12.776 30.3266 12.58 31.2412 12.58C31.7172 12.58 32.1932 12.6453 32.6692 12.776C33.1452 12.8973 33.5372 13.0607 33.8452 13.266L33.4112 14.064C32.8046 13.644 32.0812 13.434 31.2412 13.434C30.6066 13.434 30.1259 13.546 29.7992 13.77C29.4819 13.994 29.3232 14.288 29.3232 14.652C29.3232 14.932 29.4119 15.156 29.5892 15.324C29.7759 15.492 30.0046 15.618 30.2752 15.702C30.5459 15.7767 30.9192 15.856 31.3952 15.94C31.9832 16.052 32.4546 16.164 32.8092 16.276C33.1639 16.388 33.4672 16.5793 33.7192 16.85C33.9712 17.1207 34.0972 17.494 34.0972 17.97C34.0972 18.614 33.8266 19.1273 33.2852 19.51C32.7532 19.8833 32.0112 20.07 31.0592 20.07ZM39.8128 19.552C39.6262 19.72 39.3928 19.8507 39.1128 19.944C38.8422 20.028 38.5575 20.07 38.2588 20.07C37.5682 20.07 37.0362 19.8833 36.6628 19.51C36.2895 19.1367 36.1028 18.6093 36.1028 17.928V13.476H34.7868V12.636H36.1028V11.026H37.0968V12.636H39.3368V13.476H37.0968V17.872C37.0968 18.3107 37.2042 18.6467 37.4188 18.88C37.6428 19.104 37.9602 19.216 38.3708 19.216C38.5762 19.216 38.7722 19.1833 38.9588 19.118C39.1548 19.0527 39.3228 18.9593 39.4628 18.838L39.8128 19.552ZM44.1983 12.58C45.1597 12.58 45.897 12.8227 46.4103 13.308C46.9237 13.784 47.1803 14.4933 47.1803 15.436V20H46.2283V18.852C46.0043 19.2347 45.673 19.5333 45.2343 19.748C44.805 19.9627 44.2917 20.07 43.6943 20.07C42.873 20.07 42.2197 19.874 41.7343 19.482C41.249 19.09 41.0063 18.572 41.0063 17.928C41.0063 17.3027 41.2303 16.7987 41.6783 16.416C42.1357 16.0333 42.859 15.842 43.8483 15.842H46.1863V15.394C46.1863 14.7593 46.009 14.2787 45.6543 13.952C45.2997 13.616 44.7817 13.448 44.1003 13.448C43.6337 13.448 43.1857 13.5273 42.7563 13.686C42.327 13.8353 41.9583 14.0453 41.6503 14.316L41.2023 13.574C41.5757 13.2567 42.0237 13.014 42.5463 12.846C43.069 12.6687 43.6197 12.58 44.1983 12.58ZM43.8483 19.286C44.4083 19.286 44.889 19.16 45.2903 18.908C45.6917 18.6467 45.9903 18.2733 46.1863 17.788V16.584H43.8763C42.6163 16.584 41.9863 17.0227 41.9863 17.9C41.9863 18.3293 42.1497 18.67 42.4763 18.922C42.803 19.1647 43.2603 19.286 43.8483 19.286ZM56.7255 12.636V19.104C56.7255 20.3547 56.4175 21.2787 55.8015 21.876C55.1948 22.4827 54.2755 22.786 53.0435 22.786C52.3622 22.786 51.7135 22.6833 51.0975 22.478C50.4908 22.282 49.9962 22.0067 49.6135 21.652L50.1175 20.896C50.4722 21.2133 50.9015 21.4607 51.4055 21.638C51.9188 21.8153 52.4555 21.904 53.0155 21.904C53.9488 21.904 54.6348 21.6847 55.0735 21.246C55.5122 20.8167 55.7315 20.1447 55.7315 19.23V18.292C55.4235 18.7587 55.0175 19.1133 54.5135 19.356C54.0188 19.5987 53.4682 19.72 52.8615 19.72C52.1708 19.72 51.5408 19.5707 50.9715 19.272C50.4115 18.964 49.9682 18.5393 49.6415 17.998C49.3242 17.4473 49.1655 16.8267 49.1655 16.136C49.1655 15.4453 49.3242 14.8293 49.6415 14.288C49.9682 13.7467 50.4115 13.3267 50.9715 13.028C51.5315 12.7293 52.1615 12.58 52.8615 12.58C53.4868 12.58 54.0515 12.706 54.5555 12.958C55.0595 13.21 55.4655 13.574 55.7735 14.05V12.636H56.7255ZM52.9595 18.838C53.4915 18.838 53.9722 18.726 54.4015 18.502C54.8308 18.2687 55.1622 17.9467 55.3955 17.536C55.6382 17.1253 55.7595 16.6587 55.7595 16.136C55.7595 15.6133 55.6382 15.1513 55.3955 14.75C55.1622 14.3393 54.8308 14.022 54.4015 13.798C53.9815 13.5647 53.5008 13.448 52.9595 13.448C52.4275 13.448 51.9468 13.56 51.5175 13.784C51.0975 14.008 50.7662 14.3253 50.5235 14.736C50.2902 15.1467 50.1735 15.6133 50.1735 16.136C50.1735 16.6587 50.2902 17.1253 50.5235 17.536C50.7662 17.9467 51.0975 18.2687 51.5175 18.502C51.9468 18.726 52.4275 18.838 52.9595 18.838ZM60.4571 14.078C60.6905 13.5833 61.0358 13.21 61.4931 12.958C61.9598 12.706 62.5338 12.58 63.2151 12.58V13.546L62.9771 13.532C62.2025 13.532 61.5958 13.77 61.1571 14.246C60.7185 14.722 60.4991 15.3893 60.4991 16.248V20H59.5051V12.636H60.4571V14.078ZM67.5772 12.58C68.5386 12.58 69.2759 12.8227 69.7892 13.308C70.3026 13.784 70.5592 14.4933 70.5592 15.436V20H69.6072V18.852C69.3832 19.2347 69.0519 19.5333 68.6132 19.748C68.1839 19.9627 67.6706 20.07 67.0732 20.07C66.2519 20.07 65.5986 19.874 65.1132 19.482C64.6279 19.09 64.3852 18.572 64.3852 17.928C64.3852 17.3027 64.6092 16.7987 65.0572 16.416C65.5146 16.0333 66.2379 15.842 67.2272 15.842H69.5652V15.394C69.5652 14.7593 69.3879 14.2787 69.0332 13.952C68.6786 13.616 68.1606 13.448 67.4792 13.448C67.0126 13.448 66.5646 13.5273 66.1352 13.686C65.7059 13.8353 65.3372 14.0453 65.0292 14.316L64.5812 13.574C64.9546 13.2567 65.4026 13.014 65.9252 12.846C66.4479 12.6687 66.9986 12.58 67.5772 12.58ZM67.2272 19.286C67.7872 19.286 68.2679 19.16 68.6692 18.908C69.0706 18.6467 69.3692 18.2733 69.5652 17.788V16.584H67.2552C65.9952 16.584 65.3652 17.0227 65.3652 17.9C65.3652 18.3293 65.5286 18.67 65.8552 18.922C66.1819 19.1647 66.6392 19.286 67.2272 19.286ZM82.443 12.58C83.367 12.58 84.0904 12.846 84.613 13.378C85.145 13.91 85.411 14.694 85.411 15.73V20H84.417V15.828C84.417 15.0627 84.2304 14.4793 83.857 14.078C83.493 13.6767 82.975 13.476 82.303 13.476C81.5377 13.476 80.9357 13.714 80.497 14.19C80.0584 14.6567 79.839 15.3053 79.839 16.136V20H78.845V15.828C78.845 15.0627 78.6584 14.4793 78.285 14.078C77.921 13.6767 77.3984 13.476 76.717 13.476C75.961 13.476 75.359 13.714 74.911 14.19C74.4724 14.6567 74.253 15.3053 74.253 16.136V20H73.259V12.636H74.211V13.98C74.4724 13.532 74.8364 13.1867 75.303 12.944C75.7697 12.7013 76.3064 12.58 76.913 12.58C77.529 12.58 78.061 12.7107 78.509 12.972C78.9664 13.2333 79.307 13.6207 79.531 14.134C79.8017 13.6487 80.189 13.2707 80.693 13C81.2064 12.72 81.7897 12.58 82.443 12.58Z" fill="#C4C4C4"/>
<path d="M92 13H99V20" stroke="#C4C4C4" stroke-width="1.5"/>
<path d="M99 13L92 20" stroke="#C4C4C4" stroke-width="1.5"/>
</svg>
