<svg width="89" height="31" viewBox="0 0 89 31" fill="none" xmlns="http://www.w3.org/2000/svg">
<rect width="89" height="31" rx="15.5" fill="black"/>
<path d="M29.678 11.532L26.096 21H24.89L21.902 13.242L18.914 21H17.708L14.144 11.532H15.368L18.338 19.578L21.38 11.532H22.478L25.502 19.578L28.508 11.532H29.678ZM45.4104 11.532L41.8284 21H40.6224L37.6344 13.242L34.6464 21H33.4404L29.8764 11.532H31.1004L34.0704 19.578L37.1124 11.532H38.2104L41.2344 19.578L44.2404 11.532H45.4104ZM61.1428 11.532L57.5608 21H56.3548L53.3668 13.242L50.3788 21H49.1728L45.6088 11.532H46.8328L49.8028 19.578L52.8448 11.532H53.9428L56.9668 19.578L59.9728 11.532H61.1428Z" fill="#C4C4C4"/>
<path d="M67 13H74V20" stroke="#C4C4C4" stroke-width="1.5"/>
<path d="M74 13L67 20" stroke="#C4C4C4" stroke-width="1.5"/>
</svg>
